<svg width="188" height="188" viewBox="0 0 188 188" fill="none" xmlns="http://www.w3.org/2000/svg">
    <path fill-rule="evenodd" clip-rule="evenodd" d="M80.1601 0.528111C56.4321 4.35911 33.4541 18.0941 19.4441 36.8211C-17.7229 86.5031 0.420116 156.477 56.6061 180.145C86.2781 192.644 119.296 189.233 146.66 170.843C174.45 152.167 190.8 116.241 186.846 82.5411C182.214 43.0601 155.356 12.5861 115.908 2.05011C109.256 0.274111 87.4781 -0.652889 80.1601 0.528111ZM82.1601 5.25811C37.6181 12.4261 6.90212 46.0101 4.90012 89.7301C3.00812 131.066 30.9731 168.503 72.1601 179.768C78.6161 181.534 82.8621 181.957 94.1601 181.957C105.458 181.957 109.704 181.534 116.16 179.768C147.827 171.107 171.413 147.719 179.854 116.612C183.143 104.49 183.16 83.7671 179.89 71.8111C175.675 56.4001 167.878 42.8581 156.735 31.5981C145.386 20.1311 130.53 11.5811 114.858 7.49811C107.29 5.52611 88.4951 4.23911 82.1601 5.25811ZM75.3871 52.5811L54.6131 53.1121L58.0721 58.6121C59.9741 61.6371 62.1551 64.9771 62.9191 66.0341C64.2311 67.8501 66.3131 67.9871 100.781 68.5341C133.838 69.0581 137.515 69.2831 140.04 70.9401C148.215 76.3011 147.326 95.6311 138.7 100.091C136.465 101.247 132.278 101.612 121.245 101.612H106.73L106.445 91.3621L106.16 81.1121L96.4101 95.6071L86.6601 110.101V130.357V150.612H96.1601H105.66L105.665 144.362C105.668 140.925 105.961 133.725 106.316 128.362L106.962 118.612L119.561 118.592C135.566 118.566 143.575 117.397 150.029 114.144C159.942 109.146 164.718 99.6661 164.816 84.7911C164.891 73.3731 162.677 66.6531 156.869 60.6661C153.077 56.7581 150.825 55.4041 145.305 53.7131C137.918 51.4491 126.761 51.2691 75.3871 52.5811ZM27.6601 53.2441C27.6601 54.2741 31.8251 60.8461 34.8501 64.5901C36.3951 66.5031 37.6601 68.3931 37.6601 68.7901C37.6601 69.1871 38.9411 71.4471 40.5071 73.8121C42.0731 76.1771 47.9231 85.1261 53.5071 93.6981L63.6601 109.284V129.948V150.612H73.1601H82.6601V130.29V109.968L95.1601 91.2901C102.035 81.0171 107.66 72.3871 107.66 72.1121C107.66 71.8371 102.78 71.6121 96.8151 71.6121C84.4201 71.6121 85.5151 70.9661 78.5991 82.3621C76.1801 86.3501 73.8641 89.6121 73.4541 89.6121C73.0441 89.6121 70.9361 86.8001 68.7701 83.3621C66.6041 79.9251 61.3051 71.6081 56.9961 64.8811L49.1601 52.6491L38.4101 52.6311C32.4981 52.6201 27.6601 52.8961 27.6601 53.2441Z" fill="currentColor"/>
</svg>
